# xmcd
#
# Track frame offsets:
#	150
#	17461
#	32498
#	48690
#	64904
#	82614
#	99241
#	114785
#	130505
#	147423
#
# Disc length: 2155
#
# Revision: 2
# Processed by: cddbd v1.5.1PL0 Copyright (c) Steve Scherf et al.
# Submitted via: VisiTrax 2.9.5.180 - For more info visit www.synapsa.com
# Normalized: r1:DSETVAR1
#
DISCID=6f08690a
DTITLE=Various Artist - CDX 334 December 2003
DYEAR=2003
DGENRE=Country
TTITLE0=Trini Triggs - Heaven on earth
TTITLE1=Billy Currington - I got a feeling
TTITLE2=Emerson Drive - Last one standing
TTITLE3=Connie Smith/Sharon White/Barbara Fairchild - Secret place
TTITLE4=Reba McEntire - Somebody
TTITLE5=John Berry - Will you marry me
TTITLE6=Sammy Sadler - Hard on a heart
TTITLE7=4 Sisters and A cousin - I love how you love me
TTITLE8=Kurt Thomas - The effect is love
TTITLE9=Vince Hatfield - The Hatfields and the McCoys
EXTD=
EXTT0=
EXTT1=
EXTT2=
EXTT3=
EXTT4=
EXTT5=
EXTT6=
EXTT7=
EXTT8=
EXTT9=
PLAYORDER=
